<svg xmlns="http://www.w3.org/2000/svg" viewBox="0 0 480 360" role="img"><defs>
<radialGradient id="bg" cx="50%" cy="38%" r="75%"><stop offset="0" stop-color="#FFFFFF"/><stop offset="1" stop-color="#E4EDF1"/></radialGradient>
<radialGradient id="sh" cx="50%" cy="50%" r="50%"><stop offset="0" stop-color="#0B2230" stop-opacity=".28"/><stop offset="1" stop-color="#0B2230" stop-opacity="0"/></radialGradient>
<linearGradient id="white" x1="0" x2="1"><stop offset="0" stop-color="#E9EEF1"/><stop offset=".35" stop-color="#FFFFFF"/><stop offset=".7" stop-color="#F3F6F8"/><stop offset="1" stop-color="#C9D3D9"/></linearGradient>
<linearGradient id="gray" x1="0" x2="1"><stop offset="0" stop-color="#9AA8B1"/><stop offset=".4" stop-color="#DCE3E7"/><stop offset="1" stop-color="#7E8C95"/></linearGradient>
<linearGradient id="blue" x1="0" x2="1"><stop offset="0" stop-color="#003B5E"/><stop offset=".4" stop-color="#1B78B0"/><stop offset="1" stop-color="#003B5E"/></linearGradient>
<linearGradient id="green" x1="0" x2="1"><stop offset="0" stop-color="#3E8E34"/><stop offset=".4" stop-color="#7FD072"/><stop offset="1" stop-color="#3E8E34"/></linearGradient>
<linearGradient id="amber" x1="0" x2="1"><stop offset="0" stop-color="#6B3A0A"/><stop offset=".35" stop-color="#C9731E"/><stop offset=".6" stop-color="#A95A12"/><stop offset="1" stop-color="#4E2906"/></linearGradient>
<linearGradient id="clear" x1="0" x2="1"><stop offset="0" stop-color="#DDEAF0" stop-opacity=".9"/><stop offset=".4" stop-color="#FFFFFF" stop-opacity=".6"/><stop offset="1" stop-color="#C7D7DF" stop-opacity=".9"/></linearGradient>
<linearGradient id="pink" x1="0" x2="1"><stop offset="0" stop-color="#D9577E"/><stop offset=".45" stop-color="#F7A1BB"/><stop offset="1" stop-color="#C54670"/></linearGradient>
<linearGradient id="cream" x1="0" x2="0" y1="0" y2="1"><stop offset="0" stop-color="#FFFFFF"/><stop offset="1" stop-color="#EDE7DC"/></linearGradient>
<linearGradient id="gloss" x1="0" x2="0" y1="0" y2="1"><stop offset="0" stop-color="#fff" stop-opacity=".75"/><stop offset="1" stop-color="#fff" stop-opacity="0"/></linearGradient>
<linearGradient id="treat" x1="0" x2="1" y1="0" y2="1"><stop offset="0" stop-color="#B7773A"/><stop offset=".5" stop-color="#D89A5B"/><stop offset="1" stop-color="#8E5524"/></linearGradient>
</defs><rect width="480" height="360" fill="url(#bg)"/><g id="c" transform="translate(-104.2 -81.3) scale(1.275)"><ellipse cx="270" cy="300" rx="150" ry="16" fill="url(#sh)"/><g transform="rotate(-20 230 200)"><rect x="226" y="190" width="10" height="130" rx="5" fill="#F3F6F8" stroke="#D5DEE3"/><circle cx="231" cy="160" r="62" fill="url(#pink)"/><path d="M231 160 m-40 0 a40 40 0 1 0 40 -40" fill="none" stroke="#fff" stroke-width="8" opacity=".55"/><ellipse cx="210" cy="132" rx="18" ry="10" fill="#fff" opacity=".5"/></g><g transform="rotate(18 330 230)"><rect x="326" y="220" width="9" height="100" rx="4.5" fill="#F3F6F8" stroke="#D5DEE3"/><circle cx="330" cy="200" r="42" fill="url(#green)"/><ellipse cx="316" cy="182" rx="12" ry="7" fill="#fff" opacity=".5"/></g></g></svg>